<?xml version="1.0" standalone="no"?>
<!DOCTYPE svg PUBLIC "-//W3C//DTD SVG 20010904//EN"
 "http://www.w3.org/TR/2001/REC-SVG-20010904/DTD/svg10.dtd">
<svg version="1.0" xmlns="http://www.w3.org/2000/svg"
 width="416.000000pt" height="416.000000pt" viewBox="0 0 416.000000 416.000000"
 preserveAspectRatio="xMidYMid meet">
<metadata>
Created by potrace 1.14, written by Peter Selinger 2001-2017
</metadata>
<g transform="translate(0.000000,416.000000) scale(0.100000,-0.100000)"
fill="#000000" stroke="none">
<path d="M1897 3859 c-184 -18 -402 -79 -582 -163 -363 -170 -681 -488 -851
-851 -387 -828 -100 -1799 676 -2285 313 -196 709 -293 1075 -262 226 19 432
74 630 166 363 170 681 488 851 851 387 828 100 1799 -676 2285 -327 205 -726
297 -1123 259z m513 -138 c667 -140 1171 -645 1312 -1316 20 -95 23 -139 23
-325 0 -186 -3 -230 -23 -325 -142 -675 -642 -1174 -1320 -1317 -92 -20 -137
-23 -322 -23 -186 0 -230 3 -325 23 -673 141 -1175 644 -1317 1317 -20 96 -23
138 -23 330 1 242 14 334 76 520 191 572 677 1001 1262 1115 151 29 146 28
357 25 154 -2 217 -7 300 -24z"/>
<path d="M1523 3202 c-77 -86 -247 -274 -377 -417 l-236 -260 0 -757 0 -758
1175 0 1175 0 0 760 0 759 -332 416 -333 415 -465 0 -465 0 -142 -158z m904
-289 l282 -353 -142 1 -142 0 -310 346 c-170 190 -312 349 -313 354 -2 6 67 8
169 7 l173 -3 283 -352z m378 31 c143 -179 270 -339 283 -355 l23 -29 -139 0
-139 0 -274 342 c-151 188 -277 347 -282 354 -6 10 22 13 131 13 l138 0 259
-325z m-771 -89 l325 -360 1 -692 0 -693 -675 0 -675 0 0 693 0 692 74 80 c41
44 192 212 337 373 214 238 265 290 275 280 7 -7 159 -175 338 -373z m726
-670 l0 -275 -150 0 -150 0 0 275 0 275 150 0 150 0 0 -275z m403 0 l0 -270
-151 -3 -152 -3 0 276 0 276 151 -3 152 -3 0 -270z m-403 -720 l0 -355 -150 0
-150 0 0 355 0 355 150 0 150 0 0 -355z m401 348 c0 -5 1 -164 2 -356 l2 -347
-152 0 -153 0 0 355 0 355 150 0 c83 0 150 -3 151 -7z"/>
<path d="M1816 2709 c-21 -5 -60 -20 -87 -34 -27 -13 -49 -23 -49 -20 0 7 -66
-51 -115 -101 -102 -104 -159 -234 -159 -364 0 -61 5 -85 26 -130 15 -30 33
-62 40 -70 19 -23 78 -70 87 -70 4 0 7 51 8 113 0 85 5 127 20 174 21 62 71
158 79 150 2 -2 -5 -39 -16 -82 -24 -95 -26 -210 -4 -306 l16 -70 31 7 c51 10
82 30 121 75 59 70 70 121 60 273 -5 72 -9 185 -9 251 0 112 2 123 27 168 l27
47 -32 -1 c-18 -1 -49 -5 -71 -10z"/>
<path d="M1154 2203 c-46 -72 -65 -130 -71 -215 -13 -181 62 -353 186 -426 38
-23 58 -27 118 -27 39 0 74 3 78 6 3 4 -24 35 -60 70 -71 67 -129 168 -141
244 l-6 40 29 -55 c34 -66 162 -199 219 -228 l41 -21 16 28 c38 65 30 160 -20
233 -14 21 -72 76 -129 124 -134 111 -192 176 -207 231 -6 23 -14 43 -17 43
-3 0 -19 -21 -36 -47z"/>
<path d="M2238 2027 c-44 -40 -104 -59 -263 -87 -161 -28 -205 -44 -259 -91
-36 -31 -50 -53 -62 -95 -24 -83 -19 -87 79 -81 100 6 163 25 241 72 32 19 61
34 63 32 2 -2 -19 -25 -47 -51 -59 -55 -152 -101 -236 -118 -32 -7 -61 -13
-63 -15 -9 -6 36 -46 74 -66 29 -15 58 -21 105 -20 95 0 167 31 247 106 120
112 173 224 173 367 0 44 -3 80 -7 80 -5 -1 -25 -15 -45 -33z"/>
<path d="M1567 1533 c-12 -11 -7 -135 8 -218 8 -44 14 -85 15 -91 0 -6 19 -10
45 -10 l45 1 0 41 c0 23 -4 65 -10 93 -5 29 -11 78 -12 109 -1 31 -6 63 -11
70 -10 13 -69 17 -80 5z"/>
</g>
</svg>
